<svg xmlns="http://www.w3.org/2000/svg" width="99" height="60" viewBox="0 0 99 60" fill="none"><mask id="path-1-outside-1_38_106" maskUnits="userSpaceOnUse" x="0.236328" y="0.189941" width="99" height="60" fill="black"><rect fill="white" x="0.236328" y="0.189941" width="99" height="60"></rect><path d="M16.4963 24.0099V18.9099C16.4963 16.8699 15.6963 15.8499 14.0963 15.8499C12.5363 15.8499 11.7563 16.8699 11.7563 18.9099V21.7299C11.7563 22.3699 11.8163 22.9299 11.9363 23.4099C12.0563 23.8499 12.2963 24.2699 12.6563 24.6699C13.0163 25.0699 13.5363 25.4899 14.2163 25.9299C14.9363 26.3299 15.8763 26.8099 17.0363 27.3699L19.0763 28.2699C20.1963 28.7899 21.1363 29.3699 21.8963 30.0099C22.6563 30.6499 23.2563 31.4299 23.6963 32.3499C24.1763 33.2299 24.5163 34.2699 24.7163 35.4699C24.9163 36.6699 25.0163 38.0899 25.0163 39.7299V40.6899C25.0163 43.5699 24.3563 45.9299 23.0363 47.7699C21.7163 49.5699 19.8563 50.7699 17.4563 51.3699L17.8763 57.0099H10.3163L10.7363 51.3699C8.29633 50.8099 6.43633 49.6499 5.15633 47.8899C3.87633 46.0899 3.23633 43.6899 3.23633 40.6899V36.2499H11.6363V41.3499C11.6363 43.3899 12.4563 44.4099 14.0963 44.4099C15.7363 44.4099 16.5563 43.4099 16.5563 41.4099V38.3499C16.5563 37.7099 16.4963 37.1699 16.3763 36.7299C16.2563 36.2899 16.0163 35.8699 15.6563 35.4699C15.3363 35.0699 14.8363 34.6699 14.1563 34.2699C13.5163 33.8699 12.6563 33.4099 11.5763 32.8899L9.29633 31.8699C8.17633 31.3499 7.23633 30.7699 6.47633 30.1299C5.71633 29.4499 5.09633 28.6499 4.61633 27.7299C4.17633 26.8099 3.85633 25.7499 3.65633 24.5499C3.45633 23.3099 3.35633 21.8699 3.35633 20.2299V19.5099C3.35633 16.5499 3.97633 14.1899 5.21633 12.4299C6.49633 10.6299 8.33633 9.44994 10.7363 8.88994L10.3163 3.18994H17.8763L17.4563 8.94994C19.8563 9.50994 21.6963 10.6899 22.9763 12.4899C24.2563 14.2899 24.8963 16.6299 24.8963 19.5099V24.0099H16.4963Z"></path><path d="M37.1696 9.12994C40.6896 9.12994 43.3896 10.0299 45.2696 11.8299C47.1496 13.5899 48.0896 16.1499 48.0896 19.5099V19.8099C48.0896 21.3299 47.9096 22.6699 47.5496 23.8299C47.1896 24.9499 46.7296 25.9099 46.1696 26.7099C45.6096 27.5099 44.9496 28.1299 44.1896 28.5699C43.4696 29.0099 42.7296 29.2699 41.9696 29.3499V29.9499C42.7696 30.0299 43.5696 30.3099 44.3696 30.7899C45.1696 31.2699 45.9096 31.9499 46.5896 32.8299C47.2696 33.7099 47.8096 34.7499 48.2096 35.9499C48.6496 37.1499 48.8696 38.5099 48.8696 40.0299V40.6899C48.8696 44.0099 47.8496 46.5899 45.8096 48.4299C43.7696 50.2299 40.9296 51.1299 37.2896 51.1299H26.9096V9.12994H37.1696ZM35.3096 25.9899H37.0496C38.0096 25.9899 38.6896 25.7699 39.0896 25.3299C39.4896 24.8499 39.6896 24.0699 39.6896 22.9899V19.5099C39.6896 18.4299 39.4896 17.6499 39.0896 17.1699C38.6896 16.6899 38.0096 16.4499 37.0496 16.4499H35.3096V25.9899ZM35.3096 43.8099H37.2296C38.2296 43.8099 38.9296 43.5699 39.3296 43.0899C39.7696 42.6099 39.9896 41.8099 39.9896 40.6899V36.4899C39.9896 34.3699 39.0496 33.3099 37.1696 33.3099H35.3096V43.8099Z"></path><path d="M60.8443 9.12994C64.3643 9.12994 67.0643 10.0699 68.9443 11.9499C70.8643 13.7899 71.8243 16.5899 71.8243 20.3499V20.6499C71.8243 22.3299 71.6443 23.8099 71.2843 25.0899C70.9243 26.3699 70.4443 27.4499 69.8443 28.3299C69.2443 29.1699 68.5643 29.8299 67.8043 30.3099C67.0843 30.7899 66.3643 31.0699 65.6443 31.1499V31.7499C66.3643 31.8299 67.0843 32.1299 67.8043 32.6499C68.5643 33.1299 69.2443 33.8099 69.8443 34.6899C70.4443 35.5699 70.9243 36.6299 71.2843 37.8699C71.6443 39.1099 71.8243 40.4899 71.8243 42.0099V42.6099C71.8243 44.4099 71.8443 45.9899 71.8843 47.3499C71.9643 48.7099 72.1443 49.9699 72.4243 51.1299H64.0243C63.7443 49.8499 63.5643 48.5099 63.4843 47.1099C63.4443 45.7099 63.4243 44.1899 63.4243 42.5499V38.2299C63.4243 36.1499 62.5443 35.1099 60.7843 35.1099H58.8643V51.1899H50.4643V9.12994H60.8443ZM58.8643 27.7899H60.7843C62.5443 27.7899 63.4243 26.7099 63.4243 24.5499V19.6299C63.4243 17.5099 62.5443 16.4499 60.7843 16.4499H58.8643V27.7899Z"></path><path d="M73.8418 19.4499C73.8418 15.7299 74.8018 12.9899 76.7218 11.2299C78.6818 9.42994 81.3018 8.52994 84.5818 8.52994C87.9418 8.52994 90.6018 9.44994 92.5618 11.2899C94.5618 13.0899 95.5618 15.8099 95.5618 19.4499V40.7499C95.5618 44.4299 94.5618 47.1899 92.5618 49.0299C90.6018 50.8299 87.9418 51.7299 84.5818 51.7299C81.3018 51.7299 78.6818 50.8299 76.7218 49.0299C74.8018 47.2299 73.8418 44.4699 73.8418 40.7499V19.4499ZM82.2418 41.3499C82.2418 42.5099 82.4818 43.3299 82.9618 43.8099C83.4818 44.2499 84.0618 44.4699 84.7018 44.4699C85.3818 44.4699 85.9618 44.2499 86.4418 43.8099C86.9218 43.3299 87.1618 42.5099 87.1618 41.3499V18.9099C87.1618 17.7499 86.9218 16.9499 86.4418 16.5099C85.9618 16.0699 85.3818 15.8499 84.7018 15.8499C84.0618 15.8499 83.4818 16.0699 82.9618 16.5099C82.4818 16.9499 82.2418 17.7499 82.2418 18.9099V41.3499Z"></path></mask><path d="M16.4963 24.0099V18.9099C16.4963 16.8699 15.6963 15.8499 14.0963 15.8499C12.5363 15.8499 11.7563 16.8699 11.7563 18.9099V21.7299C11.7563 22.3699 11.8163 22.9299 11.9363 23.4099C12.0563 23.8499 12.2963 24.2699 12.6563 24.6699C13.0163 25.0699 13.5363 25.4899 14.2163 25.9299C14.9363 26.3299 15.8763 26.8099 17.0363 27.3699L19.0763 28.2699C20.1963 28.7899 21.1363 29.3699 21.8963 30.0099C22.6563 30.6499 23.2563 31.4299 23.6963 32.3499C24.1763 33.2299 24.5163 34.2699 24.7163 35.4699C24.9163 36.6699 25.0163 38.0899 25.0163 39.7299V40.6899C25.0163 43.5699 24.3563 45.9299 23.0363 47.7699C21.7163 49.5699 19.8563 50.7699 17.4563 51.3699L17.8763 57.0099H10.3163L10.7363 51.3699C8.29633 50.8099 6.43633 49.6499 5.15633 47.8899C3.87633 46.0899 3.23633 43.6899 3.23633 40.6899V36.2499H11.6363V41.3499C11.6363 43.3899 12.4563 44.4099 14.0963 44.4099C15.7363 44.4099 16.5563 43.4099 16.5563 41.4099V38.3499C16.5563 37.7099 16.4963 37.1699 16.3763 36.7299C16.2563 36.2899 16.0163 35.8699 15.6563 35.4699C15.3363 35.0699 14.8363 34.6699 14.1563 34.2699C13.5163 33.8699 12.6563 33.4099 11.5763 32.8899L9.29633 31.8699C8.17633 31.3499 7.23633 30.7699 6.47633 30.1299C5.71633 29.4499 5.09633 28.6499 4.61633 27.7299C4.17633 26.8099 3.85633 25.7499 3.65633 24.5499C3.45633 23.3099 3.35633 21.8699 3.35633 20.2299V19.5099C3.35633 16.5499 3.97633 14.1899 5.21633 12.4299C6.49633 10.6299 8.33633 9.44994 10.7363 8.88994L10.3163 3.18994H17.8763L17.4563 8.94994C19.8563 9.50994 21.6963 10.6899 22.9763 12.4899C24.2563 14.2899 24.8963 16.6299 24.8963 19.5099V24.0099H16.4963Z" fill="#F5F8FF"></path><path d="M37.1696 9.12994C40.6896 9.12994 43.3896 10.0299 45.2696 11.8299C47.1496 13.5899 48.0896 16.1499 48.0896 19.5099V19.8099C48.0896 21.3299 47.9096 22.6699 47.5496 23.8299C47.1896 24.9499 46.7296 25.9099 46.1696 26.7099C45.6096 27.5099 44.9496 28.1299 44.1896 28.5699C43.4696 29.0099 42.7296 29.2699 41.9696 29.3499V29.9499C42.7696 30.0299 43.5696 30.3099 44.3696 30.7899C45.1696 31.2699 45.9096 31.9499 46.5896 32.8299C47.2696 33.7099 47.8096 34.7499 48.2096 35.9499C48.6496 37.1499 48.8696 38.5099 48.8696 40.0299V40.6899C48.8696 44.0099 47.8496 46.5899 45.8096 48.4299C43.7696 50.2299 40.9296 51.1299 37.2896 51.1299H26.9096V9.12994H37.1696ZM35.3096 25.9899H37.0496C38.0096 25.9899 38.6896 25.7699 39.0896 25.3299C39.4896 24.8499 39.6896 24.0699 39.6896 22.9899V19.5099C39.6896 18.4299 39.4896 17.6499 39.0896 17.1699C38.6896 16.6899 38.0096 16.4499 37.0496 16.4499H35.3096V25.9899ZM35.3096 43.8099H37.2296C38.2296 43.8099 38.9296 43.5699 39.3296 43.0899C39.7696 42.6099 39.9896 41.8099 39.9896 40.6899V36.4899C39.9896 34.3699 39.0496 33.3099 37.1696 33.3099H35.3096V43.8099Z" fill="#F5F8FF"></path><path d="M60.8443 9.12994C64.3643 9.12994 67.0643 10.0699 68.9443 11.9499C70.8643 13.7899 71.8243 16.5899 71.8243 20.3499V20.6499C71.8243 22.3299 71.6443 23.8099 71.2843 25.0899C70.9243 26.3699 70.4443 27.4499 69.8443 28.3299C69.2443 29.1699 68.5643 29.8299 67.8043 30.3099C67.0843 30.7899 66.3643 31.0699 65.6443 31.1499V31.7499C66.3643 31.8299 67.0843 32.1299 67.8043 32.6499C68.5643 33.1299 69.2443 33.8099 69.8443 34.6899C70.4443 35.5699 70.9243 36.6299 71.2843 37.8699C71.6443 39.1099 71.8243 40.4899 71.8243 42.0099V42.6099C71.8243 44.4099 71.8443 45.9899 71.8843 47.3499C71.9643 48.7099 72.1443 49.9699 72.4243 51.1299H64.0243C63.7443 49.8499 63.5643 48.5099 63.4843 47.1099C63.4443 45.7099 63.4243 44.1899 63.4243 42.5499V38.2299C63.4243 36.1499 62.5443 35.1099 60.7843 35.1099H58.8643V51.1899H50.4643V9.12994H60.8443ZM58.8643 27.7899H60.7843C62.5443 27.7899 63.4243 26.7099 63.4243 24.5499V19.6299C63.4243 17.5099 62.5443 16.4499 60.7843 16.4499H58.8643V27.7899Z" fill="#F5F8FF"></path><path d="M73.8418 19.4499C73.8418 15.7299 74.8018 12.9899 76.7218 11.2299C78.6818 9.42994 81.3018 8.52994 84.5818 8.52994C87.9418 8.52994 90.6018 9.44994 92.5618 11.2899C94.5618 13.0899 95.5618 15.8099 95.5618 19.4499V40.7499C95.5618 44.4299 94.5618 47.1899 92.5618 49.0299C90.6018 50.8299 87.9418 51.7299 84.5818 51.7299C81.3018 51.7299 78.6818 50.8299 76.7218 49.0299C74.8018 47.2299 73.8418 44.4699 73.8418 40.7499V19.4499ZM82.2418 41.3499C82.2418 42.5099 82.4818 43.3299 82.9618 43.8099C83.4818 44.2499 84.0618 44.4699 84.7018 44.4699C85.3818 44.4699 85.9618 44.2499 86.4418 43.8099C86.9218 43.3299 87.1618 42.5099 87.1618 41.3499V18.9099C87.1618 17.7499 86.9218 16.9499 86.4418 16.5099C85.9618 16.0699 85.3818 15.8499 84.7018 15.8499C84.0618 15.8499 83.4818 16.0699 82.9618 16.5099C82.4818 16.9499 82.2418 17.7499 82.2418 18.9099V41.3499Z" fill="#F5F8FF"></path><path d="M16.4963 24.0099V18.9099C16.4963 16.8699 15.6963 15.8499 14.0963 15.8499C12.5363 15.8499 11.7563 16.8699 11.7563 18.9099V21.7299C11.7563 22.3699 11.8163 22.9299 11.9363 23.4099C12.0563 23.8499 12.2963 24.2699 12.6563 24.6699C13.0163 25.0699 13.5363 25.4899 14.2163 25.9299C14.9363 26.3299 15.8763 26.8099 17.0363 27.3699L19.0763 28.2699C20.1963 28.7899 21.1363 29.3699 21.8963 30.0099C22.6563 30.6499 23.2563 31.4299 23.6963 32.3499C24.1763 33.2299 24.5163 34.2699 24.7163 35.4699C24.9163 36.6699 25.0163 38.0899 25.0163 39.7299V40.6899C25.0163 43.5699 24.3563 45.9299 23.0363 47.7699C21.7163 49.5699 19.8563 50.7699 17.4563 51.3699L17.8763 57.0099H10.3163L10.7363 51.3699C8.29633 50.8099 6.43633 49.6499 5.15633 47.8899C3.87633 46.0899 3.23633 43.6899 3.23633 40.6899V36.2499H11.6363V41.3499C11.6363 43.3899 12.4563 44.4099 14.0963 44.4099C15.7363 44.4099 16.5563 43.4099 16.5563 41.4099V38.3499C16.5563 37.7099 16.4963 37.1699 16.3763 36.7299C16.2563 36.2899 16.0163 35.8699 15.6563 35.4699C15.3363 35.0699 14.8363 34.6699 14.1563 34.2699C13.5163 33.8699 12.6563 33.4099 11.5763 32.8899L9.29633 31.8699C8.17633 31.3499 7.23633 30.7699 6.47633 30.1299C5.71633 29.4499 5.09633 28.6499 4.61633 27.7299C4.17633 26.8099 3.85633 25.7499 3.65633 24.5499C3.45633 23.3099 3.35633 21.8699 3.35633 20.2299V19.5099C3.35633 16.5499 3.97633 14.1899 5.21633 12.4299C6.49633 10.6299 8.33633 9.44994 10.7363 8.88994L10.3163 3.18994H17.8763L17.4563 8.94994C19.8563 9.50994 21.6963 10.6899 22.9763 12.4899C24.2563 14.2899 24.8963 16.6299 24.8963 19.5099V24.0099H16.4963Z" stroke="black" stroke-width="6" stroke-linejoin="round" mask="url(#path-1-outside-1_38_106)"></path><path d="M37.1696 9.12994C40.6896 9.12994 43.3896 10.0299 45.2696 11.8299C47.1496 13.5899 48.0896 16.1499 48.0896 19.5099V19.8099C48.0896 21.3299 47.9096 22.6699 47.5496 23.8299C47.1896 24.9499 46.7296 25.9099 46.1696 26.7099C45.6096 27.5099 44.9496 28.1299 44.1896 28.5699C43.4696 29.0099 42.7296 29.2699 41.9696 29.3499V29.9499C42.7696 30.0299 43.5696 30.3099 44.3696 30.7899C45.1696 31.2699 45.9096 31.9499 46.5896 32.8299C47.2696 33.7099 47.8096 34.7499 48.2096 35.9499C48.6496 37.1499 48.8696 38.5099 48.8696 40.0299V40.6899C48.8696 44.0099 47.8496 46.5899 45.8096 48.4299C43.7696 50.2299 40.9296 51.1299 37.2896 51.1299H26.9096V9.12994H37.1696ZM35.3096 25.9899H37.0496C38.0096 25.9899 38.6896 25.7699 39.0896 25.3299C39.4896 24.8499 39.6896 24.0699 39.6896 22.9899V19.5099C39.6896 18.4299 39.4896 17.6499 39.0896 17.1699C38.6896 16.6899 38.0096 16.4499 37.0496 16.4499H35.3096V25.9899ZM35.3096 43.8099H37.2296C38.2296 43.8099 38.9296 43.5699 39.3296 43.0899C39.7696 42.6099 39.9896 41.8099 39.9896 40.6899V36.4899C39.9896 34.3699 39.0496 33.3099 37.1696 33.3099H35.3096V43.8099Z" stroke="black" stroke-width="6" stroke-linejoin="round" mask="url(#path-1-outside-1_38_106)"></path><path d="M60.8443 9.12994C64.3643 9.12994 67.0643 10.0699 68.9443 11.9499C70.8643 13.7899 71.8243 16.5899 71.8243 20.3499V20.6499C71.8243 22.3299 71.6443 23.8099 71.2843 25.0899C70.9243 26.3699 70.4443 27.4499 69.8443 28.3299C69.2443 29.1699 68.5643 29.8299 67.8043 30.3099C67.0843 30.7899 66.3643 31.0699 65.6443 31.1499V31.7499C66.3643 31.8299 67.0843 32.1299 67.8043 32.6499C68.5643 33.1299 69.2443 33.8099 69.8443 34.6899C70.4443 35.5699 70.9243 36.6299 71.2843 37.8699C71.6443 39.1099 71.8243 40.4899 71.8243 42.0099V42.6099C71.8243 44.4099 71.8443 45.9899 71.8843 47.3499C71.9643 48.7099 72.1443 49.9699 72.4243 51.1299H64.0243C63.7443 49.8499 63.5643 48.5099 63.4843 47.1099C63.4443 45.7099 63.4243 44.1899 63.4243 42.5499V38.2299C63.4243 36.1499 62.5443 35.1099 60.7843 35.1099H58.8643V51.1899H50.4643V9.12994H60.8443ZM58.8643 27.7899H60.7843C62.5443 27.7899 63.4243 26.7099 63.4243 24.5499V19.6299C63.4243 17.5099 62.5443 16.4499 60.7843 16.4499H58.8643V27.7899Z" stroke="black" stroke-width="6" stroke-linejoin="round" mask="url(#path-1-outside-1_38_106)"></path><path d="M73.8418 19.4499C73.8418 15.7299 74.8018 12.9899 76.7218 11.2299C78.6818 9.42994 81.3018 8.52994 84.5818 8.52994C87.9418 8.52994 90.6018 9.44994 92.5618 11.2899C94.5618 13.0899 95.5618 15.8099 95.5618 19.4499V40.7499C95.5618 44.4299 94.5618 47.1899 92.5618 49.0299C90.6018 50.8299 87.9418 51.7299 84.5818 51.7299C81.3018 51.7299 78.6818 50.8299 76.7218 49.0299C74.8018 47.2299 73.8418 44.4699 73.8418 40.7499V19.4499ZM82.2418 41.3499C82.2418 42.5099 82.4818 43.3299 82.9618 43.8099C83.4818 44.2499 84.0618 44.4699 84.7018 44.4699C85.3818 44.4699 85.9618 44.2499 86.4418 43.8099C86.9218 43.3299 87.1618 42.5099 87.1618 41.3499V18.9099C87.1618 17.7499 86.9218 16.9499 86.4418 16.5099C85.9618 16.0699 85.3818 15.8499 84.7018 15.8499C84.0618 15.8499 83.4818 16.0699 82.9618 16.5099C82.4818 16.9499 82.2418 17.7499 82.2418 18.9099V41.3499Z" stroke="black" stroke-width="6" stroke-linejoin="round" mask="url(#path-1-outside-1_38_106)"></path></svg>